<svg width="45" height="45" viewBox="0 0 45 45" fill="none" xmlns="http://www.w3.org/2000/svg">
<path d="M19.1429 1.13308C17.4436 1.13308 12.2199 2.52568 9.94433 4.33027C8.06699 5.81902 8.50553 10.8552 8.9282 16.2815C9.0958 18.4331 10.1962 19.2264 11.0544 19.9282C12.6897 21.2656 17.0103 21.7495 22.6971 21.4738C26.228 21.3026 28.1364 19.2515 29.699 17.5848C31.1397 16.0481 31.5605 13.4117 30.9969 10.3539C29.954 4.69499 26.117 3.49275 22.6971 1.68399C21.839 1.26208 18.7693 1.14718 17.9111 1.00515C17.0529 0.863124 10.9096 3.69165 9.18473 5.36257" stroke="black" stroke-width="2" stroke-linecap="round"/>
<path d="M10.0714 21.5483C9.79929 23.2001 7.06961 26.9879 4.44302 30.6724C3.20188 34.8197 2.37721 39.5757 1.8288 41.3521C1.55253 42.1887 1.28039 42.8936 1 43.6198" stroke="black" stroke-width="2" stroke-linecap="round"/>
<path d="M28.9702 20.8126C29.2773 22.3743 34.6248 26.406 36.8159 31.1499C38.365 34.2929 40.2258 36.6472 41.3097 38.2128C41.7796 39.0015 42.0866 39.7784 43.3333 42.1484" stroke="black" stroke-width="2" stroke-linecap="round"/>
</svg>
